<svg width="34" height="34" viewBox="0 0 34 34" fill="none" xmlns="http://www.w3.org/2000/svg">
<rect opacity="0.1" width="34" height="34" rx="5" fill="white"/>
<path d="M14.8157 11.7446C14.8157 11.0353 15.0975 10.355 15.5991 9.85337C16.1007 9.35178 16.781 9.06999 17.4903 9.06999C18.1997 9.06999 18.88 9.35178 19.3816 9.85337C19.8832 10.355 20.165 11.0353 20.165 11.7446V13.2317H21.2348V11.7446C21.2348 11.2529 21.138 10.766 20.9498 10.3117C20.7616 9.85737 20.4858 9.44458 20.1381 9.09687C19.7904 8.74916 19.3776 8.47334 18.9233 8.28517C18.469 8.09699 17.9821 8.00013 17.4903 8.00013C16.9986 8.00013 16.5117 8.09699 16.0574 8.28517C15.6031 8.47334 15.1903 8.74916 14.8426 9.09687C14.4949 9.44458 14.2191 9.85737 14.0309 10.3117C13.8427 10.766 13.7458 11.2529 13.7458 11.7446V13.2317H14.8157V11.7446Z" fill="white"/>
<path d="M21.2354 13.2318V14.8901C21.2354 15.032 21.1791 15.168 21.0787 15.2683C20.9784 15.3686 20.8424 15.425 20.7005 15.425C20.5586 15.425 20.4226 15.3686 20.3222 15.2683C20.2219 15.168 20.1656 15.032 20.1656 14.8901V13.2318H14.8163V14.8901C14.8163 15.032 14.7599 15.168 14.6596 15.2683C14.5593 15.3686 14.4232 15.425 14.2814 15.425C14.1395 15.425 14.0034 15.3686 13.9031 15.2683C13.8028 15.168 13.7464 15.032 13.7464 14.8901V13.2318H10.002V23.9303C10.002 24.2141 10.1147 24.4862 10.3153 24.6869C10.5159 24.8875 10.7881 25.0002 11.0718 25.0002H23.9101C24.1938 25.0002 24.4659 24.8875 24.6666 24.6869C24.8672 24.4862 24.9799 24.2141 24.9799 23.9303V13.2318H21.2354Z" fill="white"/>
</svg>
