<svg width="18" height="18" viewBox="0 0 18 18" fill="none" xmlns="http://www.w3.org/2000/svg">
<path d="M9 0C4.02934 0 0 4.02955 0 9C0 13.9707 4.02934 18 9 18C13.9707 18 18 13.9707 18 9C18 4.02955 13.9707 0 9 0ZM9 16.3636C4.93323 16.3636 1.63636 13.067 1.63636 9C1.63636 4.93323 4.93323 1.63636 9 1.63636C13.0668 1.63636 16.3636 4.93323 16.3636 9C16.3636 13.067 13.0668 16.3636 9 16.3636ZM12.033 10.8761C12.3525 11.1956 12.3525 11.7137 12.033 12.0332C11.8735 12.1927 11.6638 12.2727 11.4545 12.2727C11.2453 12.2729 11.0358 12.193 10.8761 12.0332L8.42155 9.57866C8.26814 9.42525 8.18182 9.21723 8.18182 9V4.09091C8.18182 3.63907 8.54816 3.27273 9 3.27273C9.45184 3.27273 9.81818 3.63907 9.81818 4.09091V8.66127L12.033 10.8761Z" fill="#4DBD98"/>
<path d="M9 0C4.02934 0 0 4.02955 0 9C0 13.9707 4.02934 18 9 18C13.9707 18 18 13.9707 18 9C18 4.02955 13.9707 0 9 0ZM9 16.3636C4.93323 16.3636 1.63636 13.067 1.63636 9C1.63636 4.93323 4.93323 1.63636 9 1.63636C13.0668 1.63636 16.3636 4.93323 16.3636 9C16.3636 13.067 13.0668 16.3636 9 16.3636ZM12.033 10.8761C12.3525 11.1956 12.3525 11.7137 12.033 12.0332C11.8735 12.1927 11.6638 12.2727 11.4545 12.2727C11.2453 12.2729 11.0358 12.193 10.8761 12.0332L8.42155 9.57866C8.26814 9.42525 8.18182 9.21723 8.18182 9V4.09091C8.18182 3.63907 8.54816 3.27273 9 3.27273C9.45184 3.27273 9.81818 3.63907 9.81818 4.09091V8.66127L12.033 10.8761Z" fill="#4DBD98"/>
<path d="M9 0C4.02934 0 0 4.02955 0 9C0 13.9707 4.02934 18 9 18C13.9707 18 18 13.9707 18 9C18 4.02955 13.9707 0 9 0ZM9 16.3636C4.93323 16.3636 1.63636 13.067 1.63636 9C1.63636 4.93323 4.93323 1.63636 9 1.63636C13.0668 1.63636 16.3636 4.93323 16.3636 9C16.3636 13.067 13.0668 16.3636 9 16.3636ZM12.033 10.8761C12.3525 11.1956 12.3525 11.7137 12.033 12.0332C11.8735 12.1927 11.6638 12.2727 11.4545 12.2727C11.2453 12.2729 11.0358 12.193 10.8761 12.0332L8.42155 9.57866C8.26814 9.42525 8.18182 9.21723 8.18182 9V4.09091C8.18182 3.63907 8.54816 3.27273 9 3.27273C9.45184 3.27273 9.81818 3.63907 9.81818 4.09091V8.66127L12.033 10.8761Z" fill="#4DBD98"/>
<path d="M9 0C4.02934 0 0 4.02955 0 9C0 13.9707 4.02934 18 9 18C13.9707 18 18 13.9707 18 9C18 4.02955 13.9707 0 9 0ZM9 16.3636C4.93323 16.3636 1.63636 13.067 1.63636 9C1.63636 4.93323 4.93323 1.63636 9 1.63636C13.0668 1.63636 16.3636 4.93323 16.3636 9C16.3636 13.067 13.0668 16.3636 9 16.3636ZM12.033 10.8761C12.3525 11.1956 12.3525 11.7137 12.033 12.0332C11.8735 12.1927 11.6638 12.2727 11.4545 12.2727C11.2453 12.2729 11.0358 12.193 10.8761 12.0332L8.42155 9.57866C8.26814 9.42525 8.18182 9.21723 8.18182 9V4.09091C8.18182 3.63907 8.54816 3.27273 9 3.27273C9.45184 3.27273 9.81818 3.63907 9.81818 4.09091V8.66127L12.033 10.8761Z" fill="#4DBD98"/>
</svg>
