<svg width="12" height="3" viewBox="0 0 12 3" fill="none" xmlns="http://www.w3.org/2000/svg">
<path d="M6.625 1.625C6.625 1.27982 6.34518 1 6 1C5.65482 1 5.375 1.27982 5.375 1.625C5.375 1.97018 5.65482 2.25 6 2.25C6.34518 2.25 6.625 1.97018 6.625 1.625Z" fill="#03293D" stroke="#03293D" stroke-linecap="round" stroke-linejoin="round"/>
<path d="M2.25 1.625C2.25 1.27982 1.97018 1 1.625 1C1.27982 1 1 1.27982 1 1.625C1 1.97018 1.27982 2.25 1.625 2.25C1.97018 2.25 2.25 1.97018 2.25 1.625Z" fill="#03293D" stroke="#03293D" stroke-linecap="round" stroke-linejoin="round"/>
<path d="M11 1.625C11 1.27982 10.7202 1 10.375 1C10.0298 1 9.75 1.27982 9.75 1.625C9.75 1.97018 10.0298 2.25 10.375 2.25C10.7202 2.25 11 1.97018 11 1.625Z" fill="#03293D" stroke="#03293D" stroke-linecap="round" stroke-linejoin="round"/>
</svg>
