<svg width="31" height="31" viewBox="0 0 31 31" fill="none" xmlns="http://www.w3.org/2000/svg">
<g clip-path="url(#clip0)">
<path fill-rule="evenodd" clip-rule="evenodd" d="M28.8648 16.715H16.7148V28.865C16.7148 29.5357 16.1705 30.08 15.4998 30.08C14.8291 30.08 14.2848 29.5357 14.2848 28.865V16.715H2.1348C1.46412 16.715 0.9198 16.1707 0.9198 15.5C0.9198 14.8293 1.46412 14.285 2.1348 14.285H14.2848V2.13503C14.2848 1.46435 14.8291 0.920029 15.4998 0.920029C16.1705 0.920029 16.7148 1.46435 16.7148 2.13503V14.285H28.8648C29.5355 14.285 30.0798 14.8293 30.0798 15.5C30.0798 16.1707 29.5355 16.715 28.8648 16.715Z" fill="white"/>
</g>
<defs>
<clipPath id="clip0">
<rect width="29.16" height="29.16" fill="white" transform="translate(0.9198 0.920029)"/>
</clipPath>
</defs>
</svg>
